<?xml version="1.0" encoding="UTF-8"?> <svg xmlns="http://www.w3.org/2000/svg" id="Слой_1" data-name="Слой 1" viewBox="0 0 150 150"><defs><style>.cls-1{fill:#1d1d1b;}</style></defs><title>why</title><path class="cls-1" d="M64.38,128.21a7.83,7.83,0,0,1-4.62-1.53,7.75,7.75,0,0,1-2.86-8.79l1.43-4.39a3.84,3.84,0,0,0-1.4-4.3l-3.73-2.72a7.86,7.86,0,0,1,4.62-14.21h4.62a3.84,3.84,0,0,0,3.66-2.66l1.43-4.4a7.86,7.86,0,0,1,14.95,0l1.43,4.4a3.84,3.84,0,0,0,3.66,2.66h4.62a7.86,7.86,0,0,1,4.62,14.21l-3.74,2.72a3.84,3.84,0,0,0-1.4,4.3l1.43,4.39A7.86,7.86,0,0,1,81,126.68L77.26,124a3.84,3.84,0,0,0-4.53,0L69,126.68a7.84,7.84,0,0,1-4.62,1.53M57.81,96.27a3.85,3.85,0,0,0-2.27,7l3.74,2.71a7.85,7.85,0,0,1,2.86,8.79l-1.43,4.4a3.85,3.85,0,0,0,5.93,4.3l3.74-2.72a7.85,7.85,0,0,1,9.24,0l3.73,2.71a3.86,3.86,0,0,0,5.93-4.31l-1.43-4.39a7.86,7.86,0,0,1,2.85-8.79l3.74-2.71a3.85,3.85,0,0,0-2.26-7H87.56a7.84,7.84,0,0,1-7.47-5.43l-1.43-4.39a3.85,3.85,0,0,0-7.33,0l-1.43,4.39a7.85,7.85,0,0,1-7.47,5.43H57.81Z"></path><path class="cls-1" d="M86.84,134.4a6.85,6.85,0,0,1-5-2.3,2,2,0,0,1,3-2.67,2.63,2.63,0,0,0,3.59.42l3-2.17a6.64,6.64,0,0,1,7.85,0l3,2.17a2.67,2.67,0,0,0,4.11-3l-1.14-3.51a6.67,6.67,0,0,1,2.42-7.47l3-2.17a2.68,2.68,0,0,0-1.57-4.84h-3.69a6.72,6.72,0,0,1-5.36-2.68,2,2,0,0,1,3.21-2.4,2.7,2.7,0,0,0,2.14,1.08H109A6.68,6.68,0,0,1,113,116.95l-3,2.17a2.66,2.66,0,0,0-1,3l1.14,3.51a6.68,6.68,0,0,1-10.28,7.47l-3-2.17a2.66,2.66,0,0,0-3.15,0l-3,2.17a6.57,6.57,0,0,1-3.9,1.31"></path><path class="cls-1" d="M120.55,126.92a5.74,5.74,0,0,1-3.39-1.12L114.75,124a1.8,1.8,0,0,0-1.65-.24,2,2,0,0,1-1.37-3.77,5.8,5.8,0,0,1,5.37.76l2.41,1.76a1.76,1.76,0,0,0,2.71-2l-0.92-2.83a5.75,5.75,0,0,1,2.1-6.45l2.41-1.75a1.77,1.77,0,0,0-1-3.2h-3a5.75,5.75,0,0,1-5.49-4l-0.92-2.83a1.77,1.77,0,0,0-3.36,0l-0.92,2.83a2,2,0,0,1-3.81-1.23l0.92-2.83a5.77,5.77,0,0,1,11,0l0.92,2.83a1.78,1.78,0,0,0,1.68,1.21h3a5.78,5.78,0,0,1,3.39,10.45l-2.4,1.75a1.76,1.76,0,0,0-.64,2l0.92,2.83a5.8,5.8,0,0,1-5.49,7.58"></path><path class="cls-1" d="M63.15,134.4a6.57,6.57,0,0,1-3.9-1.31l-3-2.17a2.66,2.66,0,0,0-3.15,0l-3,2.17a6.68,6.68,0,0,1-10.28-7.47L41,122.11a2.66,2.66,0,0,0-1-3l-3-2.17A6.68,6.68,0,0,1,41,104.86h3.69a2.7,2.7,0,0,0,2.14-1.08,2,2,0,0,1,3.21,2.4,6.72,6.72,0,0,1-5.36,2.68H41a2.68,2.68,0,0,0-1.57,4.84l3,2.17a6.67,6.67,0,0,1,2.42,7.47l-1.14,3.51a2.68,2.68,0,0,0,4.11,3l3-2.17a6.64,6.64,0,0,1,7.85,0l3,2.17a2.62,2.62,0,0,0,3.59-.41,2,2,0,0,1,3,2.67,6.87,6.87,0,0,1-5,2.3"></path><path class="cls-1" d="M29.44,126.92a5.8,5.8,0,0,1-5.49-7.58l0.92-2.83a1.77,1.77,0,0,0-.64-2l-2.41-1.75a5.78,5.78,0,0,1,3.39-10.45h3a1.75,1.75,0,0,0,1.68-1.21l0.92-2.83a5.77,5.77,0,0,1,11,0l0.92,2.83a2,2,0,0,1-3.81,1.23L38,99.52a1.77,1.77,0,0,0-3.36,0l-0.92,2.83a5.75,5.75,0,0,1-5.49,4h-3a1.77,1.77,0,0,0-1,3.2l2.41,1.75a5.76,5.76,0,0,1,2.1,6.45l-0.92,2.83a1.77,1.77,0,0,0,2.72,2l2.4-1.75a5.77,5.77,0,0,1,5.37-.76,2,2,0,0,1-1.37,3.77,1.8,1.8,0,0,0-1.65.24l-2.41,1.75a5.74,5.74,0,0,1-3.39,1.12"></path><path class="cls-1" d="M110.2,88.79a2,2,0,0,1-2-2A17.1,17.1,0,0,0,91.11,69.71H58.88A17.1,17.1,0,0,0,41.8,86.79a2,2,0,0,1-4,0A21.11,21.11,0,0,1,58.88,65.7H91.11A21.11,21.11,0,0,1,112.2,86.79a2,2,0,0,1-2,2"></path><path class="cls-1" d="M54.62,96.24a2,2,0,0,1-2-2v-2.6a2,2,0,1,1,4,0v2.6a2,2,0,0,1-2,2"></path><path class="cls-1" d="M95.38,96.24a2,2,0,0,1-2-2v-2.6a2,2,0,1,1,4,0v2.6a2,2,0,0,1-2,2"></path><path class="cls-1" d="M75,61.5A18.14,18.14,0,1,1,93.14,43.36,18.16,18.16,0,0,1,75,61.5m0-32.27A14.13,14.13,0,1,0,89.13,43.36,14.15,14.15,0,0,0,75,29.23"></path><path class="cls-1" d="M125.41,106.4a2,2,0,0,1-1.74-3q0.77-1.34,1.47-2.72a2,2,0,1,1,3.58,1.8c-0.5,1-1,2-1.57,2.91a2,2,0,0,1-1.74,1"></path><path class="cls-1" d="M131.31,91.93a2,2,0,0,1-1.94-2.5,55.55,55.55,0,0,0,1.18-5.9,2,2,0,1,1,4,.58,59.28,59.28,0,0,1-1.27,6.32,2,2,0,0,1-1.94,1.51M18.65,91.81a2,2,0,0,1-1.94-1.51A59.47,59.47,0,0,1,15.46,84a2,2,0,1,1,4-.57A56.87,56.87,0,0,0,20.6,89.3a2,2,0,0,1-1.45,2.44,2.17,2.17,0,0,1-.5.06M133,73.4a2,2,0,0,1-2-1.86,57.23,57.23,0,0,0-.73-6,2,2,0,1,1,3.95-.7,60.77,60.77,0,0,1,.78,6.39,2,2,0,0,1-1.86,2.14H133M17,73.26a2,2,0,0,1-2-2.15,62.42,62.42,0,0,1,.8-6.39,2,2,0,0,1,3.95.71,55.87,55.87,0,0,0-.74,6,2,2,0,0,1-2,1.86m111.75-18A2,2,0,0,1,126.91,54a56.68,56.68,0,0,0-2.59-5.43,2,2,0,0,1,3.52-1.91,60.67,60.67,0,0,1,2.77,5.82,2,2,0,0,1-1.09,2.61,2,2,0,0,1-.77.15M21.28,55.15a2,2,0,0,1-1.85-2.77,59.46,59.46,0,0,1,2.79-5.81,2,2,0,1,1,3.51,1.93,57.25,57.25,0,0,0-2.6,5.42,2,2,0,0,1-1.85,1.24M119,39.42a2,2,0,0,1-1.52-.69,57.57,57.57,0,0,0-4.18-4.33A2,2,0,1,1,116,31.46a59.4,59.4,0,0,1,4.47,4.65,2,2,0,0,1-.21,2.83,2,2,0,0,1-1.3.49m-87.92-.09A2,2,0,0,1,29.57,36,60.34,60.34,0,0,1,34,31.38a2,2,0,1,1,2.73,2.93,55.62,55.62,0,0,0-4.18,4.33,2,2,0,0,1-1.51.69m73.66-11.87a2,2,0,0,1-1-.28,55.44,55.44,0,0,0-5.32-2.8,2,2,0,1,1,1.67-3.64,60.71,60.71,0,0,1,5.7,3,2,2,0,0,1-1,3.72M45.37,27.4a2,2,0,0,1-1-3.73,60.18,60.18,0,0,1,5.71-3,2,2,0,1,1,1.66,3.64,57.39,57.39,0,0,0-5.33,2.79,2,2,0,0,1-1,.29m42.06-6.78a1.91,1.91,0,0,1-.43,0,55.5,55.5,0,0,0-5.93-1,2,2,0,0,1,.43-4,59.24,59.24,0,0,1,6.36,1,2,2,0,0,1-.43,4m-24.73,0a2,2,0,0,1-.42-4,60.88,60.88,0,0,1,6.36-1,2,2,0,1,1,.42,4,57.51,57.51,0,0,0-5.94,1,2.14,2.14,0,0,1-.42,0"></path><path class="cls-1" d="M24.59,106.4a2,2,0,0,1-1.74-1c-0.55-1-1.07-1.93-1.57-2.92a2,2,0,1,1,3.58-1.8q0.7,1.38,1.47,2.72a2,2,0,0,1-.73,2.73,2,2,0,0,1-1,.27"></path></svg> 