<?xml version="1.0" encoding="UTF-8"?> <svg xmlns="http://www.w3.org/2000/svg" id="Слой_1" data-name="Слой 1" viewBox="0 0 150 150"><defs><style>.cls-1{fill:#1d1d1b;}</style></defs><title>why</title><path class="cls-1" d="M75,15A60,60,0,1,1,15,74.57C15,41.78,42,15,75,15m54.75,60A54.79,54.79,0,1,0,75,129.8,54.87,54.87,0,0,0,129.79,75"></path><path class="cls-1" d="M38.47,80.48c0,3.62,0,6.92,0,10.22a1.64,1.64,0,0,0,.56,1c2,1.73,2.64,3.7,1.56,6.06-1.33,2.89-2.94,5.64-4.59,8.78-2.24-3.42-4.31-6.38-5.26-9.89-0.52-1.92.36-3.54,1.8-4.88a2.14,2.14,0,0,0,.67-1.36q0.08-6.39,0-12.78a2.16,2.16,0,0,0-.77-1.45c-1.86-1.42-3.81-2.74-5.7-4.12s-1.77-3.84.49-4.85Q50.42,56.93,73.62,46.68a3.78,3.78,0,0,1,2.72,0Q99.55,56.88,122.7,67.23c2.36,1.05,2.58,3.39.47,4.91q-8,5.73-16,11.43a1.67,1.67,0,0,0-.88,1.7c0.07,0.6,0,1.22,0,1.83,0.26,2.56-1.07,4.1-3.22,5.11a34.85,34.85,0,0,1-10.3,2.59,141.59,141.59,0,0,1-28.23.76,65.14,65.14,0,0,1-14.88-2.32,18.28,18.28,0,0,1-3.91-1.72,3.77,3.77,0,0,1-2.05-3.92,4.58,4.58,0,0,0-2.81-5.41,18.34,18.34,0,0,1-2.43-1.71M116.6,70.37c-0.46-.24-0.79-0.44-1.13-0.58Q95.68,61,75.87,52.2a2.43,2.43,0,0,0-1.78,0Q54.33,60.95,34.61,69.75c-0.38.16-.74,0.35-1.25,0.6L43.7,77.72c0-.84,0-1.36,0-1.88a4.77,4.77,0,0,1,3-5,18.37,18.37,0,0,1,3.26-1.29,70.09,70.09,0,0,1,16.23-2.17c9.78-.41,19.56-0.46,29.25,1.17a40.46,40.46,0,0,1,7.83,2.29,4.54,4.54,0,0,1,3.07,4.93c0,0.58,0,1.16,0,2l10.3-7.37M101.09,83V77.6c0-2.21,0-2.23-2.18-2.9-4.65-1.42-9.47-1.75-14.27-2a146.85,146.85,0,0,0-25.51.54A88,88,0,0,0,50,75.11,1.52,1.52,0,0,0,49,76c-0.09,2.32,0,4.65,0,7a120.31,120.31,0,0,1,52.18,0M51.62,87.89c9.15,3.75,40.25,3.4,46.81-.08a115.37,115.37,0,0,0-46.81.08"></path></svg> 