<?xml version="1.0" encoding="UTF-8"?> <svg xmlns="http://www.w3.org/2000/svg" id="Слой_1" data-name="Слой 1" viewBox="0 0 150 150"><defs><style>.cls-1{fill:#1d1d1b;}</style></defs><title>why</title><path class="cls-1" d="M41.14,125.08a2.13,2.13,0,0,1-.81-0.16L23.1,117.69A2.07,2.07,0,0,1,22,115L55,36.29a2.09,2.09,0,0,1,2.72-1.11L74.93,42.4A2.08,2.08,0,0,1,76,45.12l-33,78.69a2.05,2.05,0,0,1-1.13,1.12,2,2,0,0,1-.78.15M26.62,114.67L40,120.29,71.4,45.43,58,39.81Z"></path><path class="cls-1" d="M76.57,47.42a2,2,0,0,1-.8-0.17L53.63,38a2.06,2.06,0,0,1-1.12-1.13,2.08,2.08,0,0,1,0-1.59L56.4,26a2.09,2.09,0,0,1,1.13-1.12,2.06,2.06,0,0,1,1.59,0l22.14,9.28a2.08,2.08,0,0,1,1.11,2.73l-3.88,9.27a2.11,2.11,0,0,1-1.13,1.12,2.13,2.13,0,0,1-.79.16M57.15,34.95l18.31,7.68,2.28-5.45L59.43,29.51Z"></path><path class="cls-1" d="M78,37.12a2,2,0,0,1-.8-0.16L60,29.73A2.08,2.08,0,0,1,58.85,27l3.35-8a5.8,5.8,0,0,1,7.57-3.1l10.4,4.36a5.79,5.79,0,0,1,3.1,7.57l-3.35,8A2.07,2.07,0,0,1,78.79,37a2.1,2.1,0,0,1-.78.15M63.49,26.7L76.9,32.33l2.54-6.07a1.63,1.63,0,0,0,0-1.25,1.6,1.6,0,0,0-.88-0.88l-10.4-4.36a1.64,1.64,0,0,0-2.13.87Z"></path><path class="cls-1" d="M27.06,134.51a2,2,0,0,1-.81-0.16A2.08,2.08,0,0,1,25,132.82l-3.15-16.65a2.08,2.08,0,0,1,2.84-2.3l17.23,7.23a2.07,2.07,0,0,1,.35,3.64l-14.08,9.43a2.09,2.09,0,0,1-1.15.35m-0.4-15.32L28.51,129l8.26-5.53Z"></path><path class="cls-1" d="M128.23,134.51H17.08a2.08,2.08,0,1,1,0-4.15H128.23a2.08,2.08,0,0,1,0,4.15"></path><path class="cls-1" d="M106.63,101.21h-3.33a2.08,2.08,0,1,1,0-4.15h3.33a2.08,2.08,0,0,1,0,4.15"></path><path class="cls-1" d="M118.54,101.21h-4a2.08,2.08,0,1,1,0-4.15h4a2.08,2.08,0,0,1,0,4.15"></path><path class="cls-1" d="M129.8,101.21h-3.33a2.08,2.08,0,1,1,0-4.15h3.33a2.08,2.08,0,0,1,0,4.15"></path><path class="cls-1" d="M103.31,101.21H65.45a2.08,2.08,0,1,1,0-4.15h37.86a2.08,2.08,0,0,1,0,4.15"></path><path class="cls-1" d="M88.81,84.55H85.49a2.08,2.08,0,1,1,0-4.15h3.33a2.08,2.08,0,0,1,0,4.15"></path><path class="cls-1" d="M111.88,84.55h-7.69a2.08,2.08,0,1,1,0-4.15h7.69a2.08,2.08,0,0,1,0,4.15"></path><path class="cls-1" d="M130.58,84.55h-3.33a2.08,2.08,0,1,1,0-4.15h3.33a2.08,2.08,0,0,1,0,4.15"></path><path class="cls-1" d="M85.49,84.55H71.13a2.08,2.08,0,1,1,0-4.15H85.49a2.08,2.08,0,0,1,0,4.15"></path><path class="cls-1" d="M131.36,67.9h-31a2.08,2.08,0,1,1,0-4.15h31a2.08,2.08,0,0,1,0,4.15"></path><path class="cls-1" d="M81.48,67.9H78.17a2.08,2.08,0,1,1,0-4.15h3.32a2.08,2.08,0,0,1,0,4.15"></path><path class="cls-1" d="M100.32,67.9H97a2.08,2.08,0,1,1,0-4.15h3.33a2.08,2.08,0,0,1,0,4.15"></path><path class="cls-1" d="M132.14,51.25H122.08a2.08,2.08,0,1,1,0-4.15h10.06a2.08,2.08,0,0,1,0,4.15"></path><path class="cls-1" d="M96.23,51.25H92.9a2.08,2.08,0,1,1,0-4.15h3.33a2.08,2.08,0,0,1,0,4.15"></path><path class="cls-1" d="M109.75,51.25h-4.51a2.08,2.08,0,1,1,0-4.15h4.51a2.08,2.08,0,0,1,0,4.15"></path><path class="cls-1" d="M122.08,51.25h-3.32a2.08,2.08,0,1,1,0-4.15h3.32a2.08,2.08,0,0,1,0,4.15"></path><path class="cls-1" d="M92.9,51.25H85.49a2.08,2.08,0,1,1,0-4.15H92.9a2.08,2.08,0,0,1,0,4.15"></path><path class="cls-1" d="M132.92,34.59H92a2.08,2.08,0,1,1,0-4.15h40.92a2.08,2.08,0,0,1,0,4.15"></path><path class="cls-1" d="M77.72,117.86H57.58a2.08,2.08,0,0,1,0-4.15H77.72a2.08,2.08,0,0,1,0,4.15"></path><path class="cls-1" d="M128.23,117.86h-3.33a2.08,2.08,0,1,1,0-4.15h3.33a2.08,2.08,0,0,1,0,4.15"></path><path class="cls-1" d="M113.94,117.86h-5.49a2.08,2.08,0,1,1,0-4.15h5.49a2.08,2.08,0,1,1,0,4.15m-16.45,0H92a2.08,2.08,0,1,1,0-4.15h5.48a2.08,2.08,0,0,1,0,4.15"></path><path class="cls-1" d="M81,117.86H77.72a2.08,2.08,0,0,1,0-4.15H81a2.08,2.08,0,0,1,0,4.15"></path><path class="cls-1" d="M50.18,134.51a2.16,2.16,0,0,1-.81-0.16,2.08,2.08,0,0,1-1.11-2.72L94.65,21a2.08,2.08,0,1,1,3.83,1.61L52.1,133.24a2.07,2.07,0,0,1-1.91,1.28"></path></svg> 