<?xml version="1.0" encoding="UTF-8"?> <svg xmlns="http://www.w3.org/2000/svg" id="Слой_1" data-name="Слой 1" viewBox="0 0 150 150"><defs><style>.cls-1{fill:#1d1d1b;}</style></defs><title>why</title><path class="cls-1" d="M71,41.68l-0.72.41c-1.16.7-1.93,0.68-2.61-.07a2.66,2.66,0,0,1-.15-3.32A3.36,3.36,0,0,1,68.33,38c1.53-1,3.1-1.87,4.63-2.84a3,3,0,0,1,3.13,0c1,0.49,1,1.38,1,2.33q0,11.51,0,23c0,1.75-.45,2.34-2.17,2.59a6.7,6.7,0,0,1-2.29-.09A1.89,1.89,0,0,1,71,60.89V41.68Z"></path><path class="cls-1" d="M45.62,135c-1.58-.74-1.78-1.47-1.83-2.1a3.42,3.42,0,0,1,.2-1.54C49.2,119.93,57.83,113.27,70.37,111l1.72-.3L72.27,109a6.93,6.93,0,0,0,.12-1.09v-1.63c0-3,0-6,0-9a4.5,4.5,0,0,0-1.44-3.13A66.94,66.94,0,0,1,58.64,79.6a4.2,4.2,0,0,0-3.79-2.11C40.56,77.37,27.21,65.8,25.09,51.71a60.62,60.62,0,0,1-.46-7.45l0-1c-0.06-2.68,0-5.38,0-8.07l0-3.07c0-2,.93-2.88,2.92-2.89H48.43V24c0-2.22,0-4.38,0-6.53a2.39,2.39,0,0,1,1.89-2.37A4.26,4.26,0,0,1,51.18,15H98.8a2.46,2.46,0,0,1,2.74,2.69c0,1.75,0,3.51,0,5.27v6.29l13.67,0c2.32,0,4.64,0,7-.07h0a3.27,3.27,0,0,1,2.46.87,3.15,3.15,0,0,1,.79,2.36c-0.1,2.94-.08,5.88-0.07,8.82,0,2,0,4.05,0,6.08-0.18,13.83-11,26.77-24.53,29.46a36.12,36.12,0,0,1-3.61.46c-0.93.09-1.86,0.18-2.78,0.31a4.31,4.31,0,0,0-2.95,1.84A69.4,69.4,0,0,1,79,94.15a3.57,3.57,0,0,0-1.35,2.59c0,3.16,0,6.32,0,9.32v4l1.6,0.53c1.12,0.38,2.23.72,3.33,1.06A58.32,58.32,0,0,1,89,113.89c7.6,3.35,13.33,9.25,17.06,17.54a2.52,2.52,0,0,1-1.26,3.34,4.14,4.14,0,0,0-.4.23H45.62ZM75,115.9A27.47,27.47,0,0,0,53.33,126l-2.94,3.77h49.5L96.71,126A28.06,28.06,0,0,0,75,115.9M53.5,30.12c0,4.81,0,9.62,0,14.43a60.69,60.69,0,0,0,9.63,32.73A59.24,59.24,0,0,0,73.41,89.43l1.52,1.36,2.18-1.86C89.53,77,96,62.39,96.42,45.37c0.12-5,.08-10.07.06-15.11l0-6.72c0-.3,0-0.6,0-0.92l-0.17-2.15L94,20.12H53.5v10ZM29.64,40.06c0,2.4,0,4.76,0,7.12A26.28,26.28,0,0,0,49,71.5c0.31,0.09.62,0.14,1,.21l4.17,0.73-1.07-3.82c-3.73-9.12-5.19-19.18-4.57-31.68l0.12-2.45h-19Zm71.82-3.18c0.62,12.52-.83,22.59-4.55,31.68l-1.44,3.52,3.8-.31a7.62,7.62,0,0,0,1.32-.13c10.2-2.34,18.56-11.88,19.45-22.19,0.25-2.93.24-5.88,0.23-8.74,0-1.23,0-4.64,0-4.64l-0.71-.81-0.7-1-1.09.12H101.34Z"></path></svg> 